<?xml version="1.0" ?><!DOCTYPE svg  PUBLIC '-//W3C//DTD SVG 1.1//EN'  'http://www.w3.org/Graphics/SVG/1.1/DTD/svg11.dtd'><svg height="8.4666mm" style="shape-rendering:geometricPrecision; text-rendering:geometricPrecision; image-rendering:optimizeQuality; fill-rule:evenodd; clip-rule:evenodd" version="1.1" viewBox="0 0 846.66 846.66" width="8.4666mm" xml:space="preserve" xmlns="http://www.w3.org/2000/svg" xmlns:xlink="http://www.w3.org/1999/xlink"><defs><style type="text/css">
   <![CDATA[
    .fil0 {fill:black;fill-rule:nonzero}
   ]]>
  </style></defs><g id="Layer_x0020_1"><path class="fil0" d="M296.08 143.58c-27.16,0 -27.16,-41.29 0,-41.29l60.99 0 0 -71.37c0,-11.4 9.25,-20.65 20.65,-20.65l91.23 0c11.4,0 20.64,9.25 20.64,20.65l0 71.37 60.99 0c27.16,0 27.16,41.29 0,41.29 -84.83,0 -169.67,0 -254.5,0zm102.28 -41.29l49.94 0 0 -50.73 -49.94 0 0 50.73zm-117.94 356.77c-27.16,0 -27.16,-41.29 0,-41.29l285.82 0c27.16,0 27.16,41.29 0,41.29l-285.82 0zm0 287.88c-27.16,0 -27.16,-41.29 0,-41.29l285.82 0c27.16,0 27.16,41.29 0,41.29l-285.82 0zm0 -191.92c-27.16,0 -27.16,-41.29 0,-41.29l285.82 0c27.16,0 27.16,41.29 0,41.29l-285.82 0zm0 95.96c-27.16,0 -27.16,-41.29 0,-41.29l285.82 0c27.16,0 27.16,41.29 0,41.29l-285.82 0zm142.91 -446.09c53.76,0 97.35,43.59 97.35,97.35 0,53.76 -43.59,97.35 -97.35,97.35 -53.76,0 -97.35,-43.59 -97.35,-97.35 0,-53.76 43.59,-97.35 97.35,-97.35zm0 41.29c-30.96,0 -56.06,25.1 -56.06,56.06 0,30.96 25.1,56.06 56.06,56.06 30.96,0 56.06,-25.1 56.06,-56.06 0,-30.96 -25.1,-56.06 -56.06,-56.06zm203.25 -102.6c-27.16,0 -27.16,-41.29 0,-41.29l74.23 0c11.4,0 20.64,9.24 20.64,20.64l0 692.81c0,11.41 -9.24,20.65 -20.64,20.65l-554.96 0c-11.4,0 -20.64,-9.24 -20.64,-20.65l0 -692.81c0,-11.4 9.24,-20.64 20.64,-20.64l74.23 0c27.16,0 27.16,41.29 0,41.29l-53.58 0 0 651.52 513.66 0 0 -651.52 -53.58 0z"/></g></svg>